<svg width="20" height="20" viewBox="0 0 20 20" fill="none" xmlns="http://www.w3.org/2000/svg">
<path d="M16.3333 0H3.66667C2.74667 0.00108333 2.00108 0.746667 2 1.66667V18.3333C2.00108 19.2533 2.74667 19.9989 3.66667 20H16.3333C17.2533 19.9989 17.9989 19.2533 18 18.3333V1.66667C17.9989 0.746667 17.2533 0.00108333 16.3333 0ZM6.66667 0.666667H13.3333V1.33333H6.66667V0.666667ZM16 2V5.33333H4V2H16ZM17.3333 18.3333C17.3333 18.8856 16.8856 19.3333 16.3333 19.3333H3.66667C3.11437 19.3333 2.66667 18.8856 2.66667 18.3333V1.66667C2.66667 1.11437 3.11437 0.666667 3.66667 0.666667H6V1.33333H3.66667C3.48258 1.33333 3.33333 1.48258 3.33333 1.66667V5.66667C3.33333 5.85075 3.48258 6 3.66667 6H16.3333C16.5174 6 16.6667 5.85075 16.6667 5.66667V1.66667C16.6667 1.48258 16.5174 1.33333 16.3333 1.33333H14V0.666667H16.3333C16.8856 0.666667 17.3333 1.11437 17.3333 1.66667V18.3333Z" fill="#818181"/>
<path d="M9.99992 6.66663C9.07946 6.66663 8.33325 7.41283 8.33325 8.33329C8.33434 9.25329 9.07992 9.99888 9.99992 9.99996C10.9204 9.99996 11.6666 9.25375 11.6666 8.33329C11.6666 7.41283 10.9204 6.66663 9.99992 6.66663ZM9.99992 9.33329C9.44763 9.33329 8.99992 8.88558 8.99992 8.33329C8.99992 7.781 9.44763 7.33329 9.99992 7.33329C10.5522 7.33329 10.9999 7.781 10.9999 8.33329C10.9999 8.88558 10.5522 9.33329 9.99992 9.33329Z" fill="#818181"/>
<path d="M14.3334 6.66663C13.413 6.66663 12.6667 7.41283 12.6667 8.33329C12.6678 9.25329 13.4134 9.99888 14.3334 9.99996C15.2539 9.99996 16.0001 9.25375 16.0001 8.33329C16.0001 7.41283 15.2539 6.66663 14.3334 6.66663ZM14.3334 9.33329C13.7811 9.33329 13.3334 8.88558 13.3334 8.33329C13.3334 7.781 13.7811 7.33329 14.3334 7.33329C14.8857 7.33329 15.3334 7.781 15.3334 8.33329C15.3334 8.88558 14.8857 9.33329 14.3334 9.33329Z" fill="#818181"/>
<path d="M5.66667 6.66663C4.74621 6.66663 4 7.41283 4 8.33329C4.00108 9.25329 4.74667 9.99888 5.66667 9.99996C6.58713 9.99996 7.33333 9.25375 7.33333 8.33329C7.33333 7.41283 6.58713 6.66663 5.66667 6.66663ZM5.66667 9.33329C5.11437 9.33329 4.66667 8.88558 4.66667 8.33329C4.66667 7.781 5.11437 7.33329 5.66667 7.33329C6.21896 7.33329 6.66667 7.781 6.66667 8.33329C6.66667 8.88558 6.21896 9.33329 5.66667 9.33329Z" fill="#818181"/>
<path d="M9.99992 10.6666C9.07946 10.6666 8.33325 11.4128 8.33325 12.3333C8.33434 13.2533 9.07992 13.9989 9.99992 14C10.9204 14 11.6666 13.2538 11.6666 12.3333C11.6666 11.4128 10.9204 10.6666 9.99992 10.6666ZM9.99992 13.3333C9.44763 13.3333 8.99992 12.8856 8.99992 12.3333C8.99992 11.781 9.44763 11.3333 9.99992 11.3333C10.5522 11.3333 10.9999 11.781 10.9999 12.3333C10.9999 12.8856 10.5522 13.3333 9.99992 13.3333Z" fill="#818181"/>
<path d="M14.3334 10.6666C13.413 10.6666 12.6667 11.4128 12.6667 12.3333C12.6678 13.2533 13.4134 13.9989 14.3334 14C15.2539 14 16.0001 13.2538 16.0001 12.3333C16.0001 11.4128 15.2539 10.6666 14.3334 10.6666ZM14.3334 13.3333C13.7811 13.3333 13.3334 12.8856 13.3334 12.3333C13.3334 11.781 13.7811 11.3333 14.3334 11.3333C14.8857 11.3333 15.3334 11.781 15.3334 12.3333C15.3334 12.8856 14.8857 13.3333 14.3334 13.3333Z" fill="#818181"/>
<path d="M5.66667 10.6666C4.74621 10.6666 4 11.4128 4 12.3333C4.00108 13.2533 4.74667 13.9989 5.66667 14C6.58713 14 7.33333 13.2538 7.33333 12.3333C7.33333 11.4128 6.58713 10.6666 5.66667 10.6666ZM5.66667 13.3333C5.11437 13.3333 4.66667 12.8856 4.66667 12.3333C4.66667 11.781 5.11437 11.3333 5.66667 11.3333C6.21896 11.3333 6.66667 11.781 6.66667 12.3333C6.66667 12.8856 6.21896 13.3333 5.66667 13.3333Z" fill="#818181"/>
<path d="M9.99992 14.6667C9.07946 14.6667 8.33325 15.4129 8.33325 16.3334C8.33434 17.2534 9.07992 17.9989 9.99992 18C10.9204 18 11.6666 17.2538 11.6666 16.3334C11.6666 15.4129 10.9204 14.6667 9.99992 14.6667ZM9.99992 17.3334C9.44763 17.3334 8.99992 16.8856 8.99992 16.3334C8.99992 15.7811 9.44763 15.3334 9.99992 15.3334C10.5522 15.3334 10.9999 15.7811 10.9999 16.3334C10.9999 16.8856 10.5522 17.3334 9.99992 17.3334Z" fill="#818181"/>
<path d="M5.66667 14.6667C4.74621 14.6667 4 15.4129 4 16.3334C4.00108 17.2534 4.74667 17.9989 5.66667 18C6.58713 18 7.33333 17.2538 7.33333 16.3334C7.33333 15.4129 6.58713 14.6667 5.66667 14.6667ZM5.66667 17.3334C5.11437 17.3334 4.66667 16.8856 4.66667 16.3334C4.66667 15.7811 5.11437 15.3334 5.66667 15.3334C6.21896 15.3334 6.66667 15.7811 6.66667 16.3334C6.66667 16.8856 6.21896 17.3334 5.66667 17.3334Z" fill="#818181"/>
<path d="M15.6667 14.6667H13.0001C12.816 14.6667 12.6667 14.8159 12.6667 15V18.3334C12.6667 18.5174 12.816 18.6667 13.0001 18.6667H15.6667C15.8508 18.6667 16.0001 18.5174 16.0001 18.3334V15C16.0001 14.8159 15.8508 14.6667 15.6667 14.6667ZM15.3334 18H13.3334V15.3334H15.3334V18Z" fill="#818181"/>
<path d="M13.9999 4H13.3333V4.66667H13.9999V4Z" fill="#818181"/>
<path d="M15.3334 4H14.6667V4.66667H15.3334V4Z" fill="#818181"/>
<path d="M6.00008 3.33335V2.66669H5.33342V3.33335H4.66675V4.00002H5.33342V4.66669H6.00008V4.00002H6.66675V3.33335H6.00008Z" fill="#818181"/>
<path d="M14.6667 17H14.3333C14.1493 17 14 17.1492 14 17.3333C14 17.5174 14.1493 17.6667 14.3333 17.6667H14.6667C14.8508 17.6667 15 17.5174 15 17.3333C15 17.1492 14.8508 17 14.6667 17Z" fill="#818181"/>
</svg>
