<svg width="31" height="30" viewBox="0 0 31 30" fill="none" xmlns="http://www.w3.org/2000/svg">
<path d="M28.1562 2.34375H2.84375C2.47092 2.34418 2.11349 2.49248 1.84986 2.75611C1.58623 3.01974 1.43793 3.37717 1.4375 3.75V26.25C1.43793 26.6228 1.58623 26.9803 1.84986 27.2439C2.11349 27.5075 2.47092 27.6558 2.84375 27.6562H28.1562C28.5291 27.6558 28.8865 27.5075 29.1501 27.2439C29.4138 26.9803 29.5621 26.6228 29.5625 26.25V3.75C29.5621 3.37717 29.4138 3.01974 29.1501 2.75611C28.8865 2.49248 28.5291 2.34418 28.1562 2.34375ZM27.6875 25.7812H3.3125V4.21875H27.6875V25.7812Z" fill="#2897EC"/>
<path d="M9.40625 14.0625H11.2812V11.7188H13.625V9.84375H11.2812V7.5H9.40625V9.84375H7.0625V11.7188H9.40625V14.0625Z" fill="#2897EC"/>
<path d="M12.001 16.7044L10.3438 18.3617L8.68652 16.7044L7.36072 18.0302L9.01798 19.6875L7.36072 21.3447L8.68652 22.6705L10.3438 21.0133L12.001 22.6705L13.3269 21.3447L11.6696 19.6875L13.3269 18.0302L12.001 16.7044Z" fill="#2897EC"/>
<path d="M17.375 9.84375H23.9375V11.7188H17.375V9.84375Z" fill="#2897EC"/>
<path d="M17.375 16.875H23.9375V18.75H17.375V16.875Z" fill="#2897EC"/>
<path d="M17.375 20.625H23.9375V22.5H17.375V20.625Z" fill="#2897EC"/>
</svg>
