<svg width="19" height="21" viewBox="0 0 19 21" fill="none" xmlns="http://www.w3.org/2000/svg">
<path d="M16.2083 20.0834H2.79167C1.73312 20.0834 0.875 19.2252 0.875 18.1667V4.75002C0.875 3.69147 1.73312 2.83335 2.79167 2.83335H4.70833V0.916687H6.625V2.83335H12.375V0.916687H14.2917V2.83335H16.2083C17.2669 2.83335 18.125 3.69147 18.125 4.75002V18.1667C18.125 19.2252 17.2669 20.0834 16.2083 20.0834ZM2.79167 8.58335V18.1667H16.2083V8.58335H2.79167ZM2.79167 4.75002V6.66669H16.2083V4.75002H2.79167ZM14.2917 16.25H12.375V14.3334H14.2917V16.25ZM10.4583 16.25H8.54167V14.3334H10.4583V16.25ZM6.625 16.25H4.70833V14.3334H6.625V16.25ZM14.2917 12.4167H12.375V10.5H14.2917V12.4167ZM10.4583 12.4167H8.54167V10.5H10.4583V12.4167ZM6.625 12.4167H4.70833V10.5H6.625V12.4167Z" fill="#0050C2"/>
</svg>
