<svg width="20" height="20" viewBox="0 0 20 20" fill="none" xmlns="http://www.w3.org/2000/svg">
<g clip-path="url(#clip0_1_818)">
<path d="M16.4283 10C16.0338 10 15.7141 10.3198 15.7141 10.7143V17.8571C15.7141 18.2516 15.3943 18.5713 14.9998 18.5713H2.14283C1.74833 18.5713 1.42854 18.2516 1.42854 17.8571V3.57154C1.42854 3.17704 1.74833 2.85725 2.14283 2.85725H10.7141C11.1086 2.85725 11.4284 2.53746 11.4284 2.14296C11.4284 1.74846 11.1086 1.42871 10.7141 1.42871H2.14283C0.959376 1.42871 0 2.38809 0 3.57154V17.8571C0 19.0405 0.959376 19.9999 2.14283 19.9999H14.9998C16.1833 19.9999 17.1426 19.0405 17.1426 17.8571V10.7143C17.1426 10.3198 16.8228 10 16.4283 10Z" fill="#2897EC"/>
<path d="M19.1992 0.80116C18.6864 0.288221 17.9907 0.000110702 17.2654 0.000194406C16.5396 -0.0018982 15.8433 0.286714 15.3319 0.801621L5.92337 10.2093C5.84532 10.2879 5.78643 10.3835 5.75123 10.4886L4.32269 14.7742C4.19801 15.1485 4.40037 15.553 4.77465 15.6776C4.84727 15.7018 4.92331 15.7142 4.99982 15.7142C5.07649 15.7141 5.1527 15.7018 5.22553 15.6778L9.51119 14.2493C9.61645 14.2141 9.71208 14.155 9.79047 14.0764L19.1989 4.668C20.2668 3.60027 20.2669 1.86902 19.1992 0.80116Z" fill="#2897EC"/>
</g>
<defs>
<clipPath id="clip0_1_818">
<rect width="20" height="20" fill="white"/>
</clipPath>
</defs>
</svg>
