<svg width="31" height="30" viewBox="0 0 31 30" fill="none" xmlns="http://www.w3.org/2000/svg">
<path d="M25.5 5H8C6.62125 5 5.5 6.12125 5.5 7.5V13.75H8V10L16 16C16.2165 16.1621 16.4796 16.2497 16.75 16.2497C17.0204 16.2497 17.2835 16.1621 17.5 16L25.5 10V21.25H15.5V23.75H25.5C26.8787 23.75 28 22.6287 28 21.25V7.5C28 6.12125 26.8787 5 25.5 5ZM16.75 13.4375L8.8325 7.5H24.6675L16.75 13.4375Z" fill="#2897EC"/>
<path d="M3 15H11.75V17.5H3V15ZM5.5 18.75H13V21.25H5.5V18.75ZM9.25 22.5H14.25V25H9.25V22.5Z" fill="#2897EC"/>
</svg>
