<svg width="33" height="35" viewBox="0 0 33 35" fill="none" xmlns="http://www.w3.org/2000/svg">
<path d="M7.05064 7.31868C7.20639 7.3386 7.36348 7.34845 7.52051 7.34845C8.78928 7.34845 9.99169 6.67363 10.6548 5.59222C11.3275 4.49546 11.3703 3.08486 10.7655 1.94925C10.172 0.835175 9.0176 0.0874375 7.75734 0.0072725C6.48526 -0.0736667 5.23858 0.525706 4.50767 1.57024C3.77042 2.62407 3.6419 4.02805 4.17624 5.19843C4.69861 6.34263 5.80248 7.15948 7.05064 7.31868Z" fill="#0050C2"/>
<path d="M30.5648 27.7528C31.4498 26.7224 32.0097 25.5034 32.1843 24.2275C32.3538 22.9896 32.1621 21.7298 31.6299 20.5844C31.1299 19.5077 30.3302 18.5359 29.3176 17.7739C28.2983 17.0068 27.0704 16.4587 25.7673 16.189C25.2513 16.0822 24.7186 16.0178 24.1839 15.9976C24.0592 15.9935 23.9388 16.039 23.8493 16.1252C23.7597 16.2114 23.7091 16.3304 23.7091 16.4547V23.2406H17.2139V19.9334C17.2139 19.7245 17.0725 19.5422 16.8703 19.4903L15.1988 19.0607C14.9542 18.9977 14.7048 19.1451 14.6419 19.3898L14.4161 20.2685C14.3858 20.3859 14.4035 20.5106 14.4652 20.6151C14.527 20.7196 14.6277 20.7952 14.7452 20.8254L15.3917 20.9914V23.0167C15.3917 23.1974 15.393 23.4112 15.4022 23.6284C15.529 26.5582 17.629 29.1382 20.7522 30.2011C20.7596 30.2037 20.7677 30.2047 20.7753 30.2069L18.7672 32.0119C18.7052 32.0041 18.6423 31.9987 18.578 31.9987C17.7493 31.9987 17.0775 32.6705 17.0775 33.4993C17.0775 34.328 17.7493 34.9998 18.578 34.9998C19.3511 34.9998 19.9871 34.415 20.0693 33.6638L23.1602 30.2251L24.8757 30.2247L27.9363 33.6299C28.0026 34.3974 28.6455 34.9999 29.4303 34.9999C30.2591 34.9999 30.931 34.328 30.931 33.4994C30.931 32.6706 30.2591 31.9988 29.4303 31.9988C29.3744 31.9988 29.3193 32.0023 29.2648 32.0083L27.2552 30.202C27.2653 30.1988 27.2752 30.1956 27.2852 30.1918C28.4469 29.7289 29.6116 28.8627 30.5648 27.7528Z" fill="#0050C2"/>
<path d="M14.3946 17.4862C14.294 15.7003 13.968 13.9131 13.246 12.2683C12.5528 10.6897 11.4388 9.23749 9.93513 8.35898C9.25975 7.96449 8.24998 7.61399 7.53074 7.62032C6.81151 7.62666 6.19102 7.7822 5.51085 8.13742C4.83589 8.48982 4.17923 8.88797 3.55818 9.32842C2.85105 9.83003 2.1725 10.4008 1.64344 11.0924C1.24135 11.6182 0.92132 12.2288 0.804909 12.8855C0.685189 13.5605 0.787595 14.2889 1.12881 14.8887C1.62901 15.8437 2.5748 16.5098 3.5075 16.9991L1.63957 25.5181C1.60571 25.6915 1.65048 25.8693 1.76267 26.0056C1.87507 26.142 2.04074 26.2203 2.21747 26.2203H4.12468L4.49095 33.7886C4.52501 34.4458 5.07737 34.9859 5.73608 34.9997C6.38422 35.0134 6.95389 34.5161 7.02702 33.8718C7.02991 33.8456 7.03209 33.8193 7.0335 33.793L7.42566 26.2203H7.63019L7.99639 33.7886C8.03046 34.4458 8.58281 34.9859 9.24152 34.9997C9.88966 35.0134 10.4593 34.5161 10.5325 33.8718C10.5353 33.8456 10.5375 33.8193 10.5389 33.793L10.9311 26.2203H12.7768C12.953 26.2203 13.1186 26.1424 13.2309 26.0063C13.3432 25.8701 13.3883 25.6928 13.3541 25.5163L11.1815 15.2641V14.436C11.8407 16.0001 12.0956 17.6823 12.235 19.3627C12.238 19.3998 12.2411 19.4369 12.2441 19.474C12.2936 20.0489 12.8033 20.4941 13.379 20.4694C13.9506 20.4448 14.4163 19.9624 14.4223 19.3906C14.4224 17.9325 14.41 17.7595 14.3946 17.4862ZM10.8255 16.9944C10.9139 16.8002 11.0012 16.6082 10.8245 16.9967C10.6477 17.3853 10.735 17.1932 10.8233 16.999C10.4676 17.7776 9.54859 18.1214 8.76918 17.7669L6.47762 16.7244C6.81609 16.3913 6.82031 15.8305 6.48494 15.4942C6.33939 15.348 6.14281 15.2568 5.93702 15.2411C5.81399 15.2317 5.69181 15.2554 5.56955 15.266C5.42203 15.2789 5.27402 15.2853 5.12594 15.2863C5.11481 15.1924 5.11108 15.0971 5.11742 15.0015C4.49637 15.3186 3.71555 15.1628 3.26616 14.6296C2.89201 14.1855 2.80439 13.5504 3.04474 13.0218L3.08585 12.9317C3.35104 12.3485 3.97414 11.9876 4.61229 12.0488C5.29133 12.1138 5.85523 12.6431 5.96552 13.3157C5.98713 13.4474 5.99121 13.5818 5.97763 13.7145C6.38106 13.5151 6.86747 13.4917 7.30883 13.6925L10.0544 14.9414C10.8339 15.296 11.1786 16.2147 10.8255 16.9944Z" fill="#0050C2"/>
<path d="M10.8251 16.9969C10.8255 16.9961 10.8258 16.9953 10.8261 16.9944C10.8254 16.996 10.8246 16.9977 10.824 16.9992C10.8243 16.9985 10.8248 16.9977 10.8251 16.9969Z" fill="#0050C2"/>
</svg>
