<svg width="18" height="20" viewBox="0 0 18 20" fill="none" xmlns="http://www.w3.org/2000/svg">
<path d="M4.3125 4.6875H11.1875C11.2704 4.6875 11.3499 4.65458 11.4085 4.59597C11.4671 4.53737 11.5 4.45788 11.5 4.375C11.5 4.29212 11.4671 4.21263 11.4085 4.15403C11.3499 4.09542 11.2704 4.0625 11.1875 4.0625H4.3125C4.22962 4.0625 4.15013 4.09542 4.09153 4.15403C4.03292 4.21263 4 4.29212 4 4.375C4 4.45788 4.03292 4.53737 4.09153 4.59597C4.15013 4.65458 4.22962 4.6875 4.3125 4.6875Z" fill="#818181"/>
<path d="M4.3125 6.5625H11.1875C11.2704 6.5625 11.3499 6.52958 11.4085 6.47097C11.4671 6.41237 11.5 6.33288 11.5 6.25C11.5 6.16712 11.4671 6.08763 11.4085 6.02903C11.3499 5.97042 11.2704 5.9375 11.1875 5.9375H4.3125C4.22962 5.9375 4.15013 5.97042 4.09153 6.02903C4.03292 6.08763 4 6.16712 4 6.25C4 6.33288 4.03292 6.41237 4.09153 6.47097C4.15013 6.52958 4.22962 6.5625 4.3125 6.5625Z" fill="#818181"/>
<path d="M4.3125 8.4375H11.1875C11.2704 8.4375 11.3499 8.40458 11.4085 8.34597C11.4671 8.28737 11.5 8.20788 11.5 8.125C11.5 8.04212 11.4671 7.96263 11.4085 7.90403C11.3499 7.84542 11.2704 7.8125 11.1875 7.8125H4.3125C4.22962 7.8125 4.15013 7.84542 4.09153 7.90403C4.03292 7.96263 4 8.04212 4 8.125C4 8.20788 4.03292 8.28737 4.09153 8.34597C4.15013 8.40458 4.22962 8.4375 4.3125 8.4375Z" fill="#818181"/>
<path d="M4.3125 10.3125H11.1875C11.2704 10.3125 11.3499 10.2796 11.4085 10.221C11.4671 10.1624 11.5 10.0829 11.5 10C11.5 9.91712 11.4671 9.83763 11.4085 9.77903C11.3499 9.72042 11.2704 9.6875 11.1875 9.6875H4.3125C4.22962 9.6875 4.15013 9.72042 4.09153 9.77903C4.03292 9.83763 4 9.91712 4 10C4 10.0829 4.03292 10.1624 4.09153 10.221C4.15013 10.2796 4.22962 10.3125 4.3125 10.3125Z" fill="#818181"/>
<path d="M4.3125 12.1875H6.8125C6.89538 12.1875 6.97487 12.1546 7.03347 12.096C7.09208 12.0374 7.125 11.9579 7.125 11.875C7.125 11.7921 7.09208 11.7126 7.03347 11.654C6.97487 11.5954 6.89538 11.5625 6.8125 11.5625H4.3125C4.22962 11.5625 4.15013 11.5954 4.09153 11.654C4.03292 11.7126 4 11.7921 4 11.875C4 11.9579 4.03292 12.0374 4.09153 12.096C4.15013 12.1546 4.22962 12.1875 4.3125 12.1875Z" fill="#818181"/>
<path d="M16.6614 8.0084C16.4468 7.88293 16.1912 7.84772 15.9507 7.91049C15.7102 7.97326 15.5044 8.12888 15.3785 8.3432L14.625 9.62891V1.875C14.625 1.79212 14.5921 1.71263 14.5335 1.65403C14.4749 1.59542 14.3954 1.5625 14.3125 1.5625H11.9419C11.9419 1.5625 11.003 0.60625 10.9654 0.638437C10.9361 0.62954 10.9056 0.625012 10.875 0.625H1.81249C1.72961 0.625 1.65012 0.657924 1.59152 0.716529C1.53291 0.775134 1.49999 0.85462 1.49999 0.9375V1.91457C1.23156 1.98377 0.993745 2.14023 0.82395 2.35934C0.654155 2.57846 0.562012 2.8478 0.562012 3.125C0.562012 3.4022 0.654155 3.67154 0.82395 3.89066C0.993745 4.10977 1.23156 4.26623 1.49999 4.33543V5.03957C1.23156 5.10877 0.993745 5.26523 0.82395 5.48434C0.654155 5.70346 0.562012 5.9728 0.562012 6.25C0.562012 6.5272 0.654155 6.79654 0.82395 7.01566C0.993745 7.23477 1.23156 7.39123 1.49999 7.46043V8.16457C1.23156 8.23377 0.993745 8.39023 0.82395 8.60934C0.654155 8.82846 0.562012 9.0978 0.562012 9.375C0.562012 9.6522 0.654155 9.92154 0.82395 10.1407C0.993745 10.3598 1.23156 10.5162 1.49999 10.5854V10.9771C1.23156 11.0463 0.993745 11.2027 0.82395 11.4218C0.654155 11.641 0.562012 11.9103 0.562012 12.1875C0.562012 12.4647 0.654155 12.734 0.82395 12.9532C0.993745 13.1723 1.23156 13.3287 1.49999 13.3979V15.3125C1.49999 15.3954 1.53291 15.4749 1.59152 15.5335C1.65012 15.5921 1.72961 15.625 1.81249 15.625H2.12499V16.5625C2.12499 16.6454 2.15791 16.7249 2.21652 16.7835C2.27512 16.8421 2.35461 16.875 2.43749 16.875H10.3786L10.1644 17.2404C10.1453 17.2732 10.1323 17.3092 10.1261 17.3467C10.1258 17.3485 10.1253 17.35 10.125 17.3518L10.1242 17.357V17.3581L9.87425 19.0159C9.86494 19.0777 9.87435 19.1408 9.90127 19.1972C9.92818 19.2535 9.97137 19.3005 10.0253 19.3321C10.0791 19.3637 10.1413 19.3784 10.2036 19.3743C10.2659 19.3703 10.3256 19.3476 10.3749 19.3093L11.7041 18.2773C11.7893 18.2112 11.8309 18.1707 11.8243 18.1164L12.5518 16.875H14.3125C14.3954 16.875 14.4749 16.8421 14.5335 16.7835C14.5921 16.7249 14.625 16.6454 14.625 16.5625V13.3374L16.9961 9.29121C17.1215 9.07665 17.1567 8.82109 17.094 8.5806C17.0312 8.34012 16.8757 8.13433 16.6614 8.0084ZM16.1085 8.51484C16.1683 8.49924 16.2314 8.50171 16.2898 8.52196C16.3482 8.54221 16.3992 8.57932 16.4365 8.6286C16.4738 8.67788 16.4957 8.73712 16.4993 8.79882C16.503 8.86052 16.4882 8.92191 16.457 8.97523L16.299 9.24477L15.7599 8.92875L15.918 8.65922C15.9386 8.62375 15.9661 8.59273 15.9988 8.56795C16.0315 8.54317 16.0687 8.52512 16.1085 8.51484ZM11.4008 17.6028L10.8618 17.2868L14.9698 10.2769L15.5088 10.5929L11.4008 17.6028ZM11.1875 1.69195L12.308 2.8125H11.1875V1.69195ZM15.2858 9.73766L15.4437 9.46813L15.983 9.78414L15.825 10.0537L15.2858 9.73766ZM14 2.1875V10.625C14 10.6453 14.002 10.6655 14.0059 10.6854L13.375 11.762V3.125C13.375 3.08403 13.367 3.04345 13.3513 3.00558C13.3357 2.96772 13.3127 2.93331 13.2837 2.90434L13.2835 2.90402L12.5669 2.1875H14ZM2.12499 1.25H10.5625V3.125C10.5625 3.20788 10.5954 3.28737 10.654 3.34597C10.7126 3.40458 10.7921 3.4375 10.875 3.4375H12.75V12.8285L11.4774 15H2.12499V13.398C2.34133 13.3423 2.53877 13.2295 2.69673 13.0716C2.85469 12.9136 2.96739 12.7161 3.02307 12.4998C3.04373 12.4195 3.03165 12.3343 2.98948 12.2629C2.94731 12.1915 2.87852 12.1398 2.79823 12.1191C2.75847 12.1089 2.71709 12.1066 2.67645 12.1124C2.6358 12.1181 2.59669 12.1319 2.56135 12.1527C2.48997 12.1949 2.43826 12.2637 2.4176 12.344C2.3969 12.4243 2.36035 12.4997 2.3101 12.5658C2.25985 12.6318 2.19691 12.6871 2.12499 12.7285V10.5855C2.34133 10.5298 2.53877 10.417 2.69673 10.2591C2.85469 10.1011 2.96739 9.90362 3.02307 9.68727C3.04373 9.60698 3.03165 9.52177 2.98948 9.45039C2.94731 9.37901 2.87852 9.3273 2.79823 9.30664C2.71794 9.28598 2.63273 9.29807 2.56135 9.34023C2.48997 9.3824 2.43826 9.45119 2.4176 9.53148C2.3969 9.61184 2.36035 9.68724 2.3101 9.75328C2.25985 9.81931 2.19691 9.87464 2.12499 9.91602V7.46047C2.34133 7.40476 2.53877 7.29203 2.69673 7.13405C2.85469 6.97607 2.96739 6.77862 3.02307 6.56227C3.04373 6.48198 3.03165 6.39677 2.98948 6.32539C2.94731 6.254 2.87852 6.2023 2.79823 6.18164C2.71794 6.16098 2.63273 6.17307 2.56135 6.21523C2.48997 6.2574 2.43826 6.32619 2.4176 6.40648C2.3969 6.48684 2.36035 6.56224 2.3101 6.62828C2.25985 6.69431 2.19691 6.74964 2.12499 6.79102V4.33547C2.34133 4.27976 2.53877 4.16703 2.69673 4.00905C2.85469 3.85107 2.96739 3.65362 3.02307 3.43727C3.04373 3.35698 3.03165 3.27177 2.98948 3.20039C2.94731 3.12901 2.87852 3.0773 2.79823 3.05664C2.71794 3.03598 2.63273 3.04807 2.56135 3.09023C2.48997 3.1324 2.43826 3.20119 2.4176 3.28148C2.3969 3.36184 2.36035 3.43724 2.3101 3.50328C2.25985 3.56931 2.19691 3.62464 2.12499 3.66602V1.25ZM1.18749 3.125C1.18763 3.01543 1.21658 2.90783 1.27143 2.81297C1.32628 2.71812 1.4051 2.63935 1.49999 2.58457V3.66543C1.4051 3.61065 1.32628 3.53188 1.27143 3.43703C1.21658 3.34217 1.18763 3.23457 1.18749 3.125ZM1.18749 6.25C1.18763 6.14043 1.21658 6.03283 1.27143 5.93797C1.32628 5.84312 1.4051 5.76435 1.49999 5.70957V6.79043C1.4051 6.73565 1.32628 6.65688 1.27143 6.56203C1.21658 6.46717 1.18763 6.35957 1.18749 6.25ZM1.18749 9.375C1.18763 9.26543 1.21658 9.15783 1.27143 9.06297C1.32628 8.96812 1.4051 8.88935 1.49999 8.83457V9.91543C1.4051 9.86065 1.32628 9.78188 1.27143 9.68703C1.21658 9.59217 1.18763 9.48457 1.18749 9.375ZM1.18749 12.1875C1.18763 12.0779 1.21658 11.9703 1.27143 11.8755C1.32628 11.7806 1.4051 11.7019 1.49999 11.6471V12.7279C1.4051 12.6731 1.32628 12.5944 1.27143 12.4995C1.21658 12.4047 1.18763 12.2971 1.18749 12.1875ZM2.74999 16.25V15.625H11.1111L10.7448 16.25H2.74999ZM10.6742 17.9014L10.9562 18.0667L10.6086 18.3365L10.6742 17.9014ZM14 16.25H12.918L14 14.4039V16.25Z" fill="#818181"/>
</svg>
