<svg width="35" height="35" viewBox="0 0 35 35" fill="none" xmlns="http://www.w3.org/2000/svg">
<path d="M16.1 10.3704C16.1 13.5205 13.5928 16.0741 10.5 16.0741C7.40721 16.0741 4.9 13.5205 4.9 10.3704C4.9 7.22032 7.40721 4.66669 10.5 4.66669C13.5928 4.66669 16.1 7.22032 16.1 10.3704ZM13.3 10.3704C13.3 8.79536 12.0464 7.51854 10.5 7.51854C8.9536 7.51854 7.7 8.79536 7.7 10.3704C7.7 11.9454 8.9536 13.2222 10.5 13.2222C12.0464 13.2222 13.3 11.9454 13.3 10.3704Z" fill="#0050C2"/>
<path d="M30.1 16.7871C30.1 19.5434 27.9062 21.7778 25.2 21.7778C22.4938 21.7778 20.3 19.5434 20.3 16.7871C20.3 14.0307 22.4938 11.7963 25.2 11.7963C27.9062 11.7963 30.1 14.0307 30.1 16.7871ZM27.3 16.7871C27.3 15.6058 26.3598 14.6482 25.2 14.6482C24.0402 14.6482 23.1 15.6058 23.1 16.7871C23.1 17.9683 24.0402 18.9259 25.2 18.9259C26.3598 18.9259 27.3 17.9683 27.3 16.7871Z" fill="#0050C2"/>
<path d="M14.7 30.3334V24.6297C14.7 22.2671 12.8196 20.3519 10.5 20.3519C8.1804 20.3519 6.3 22.2671 6.3 24.6297V30.3334H3.5V24.6297C3.5 20.6921 6.63401 17.5 10.5 17.5C14.366 17.5 17.5 20.6921 17.5 24.6297V30.3334H14.7Z" fill="#0050C2"/>
<path d="M28.7 29.6204V30.3334H31.5V29.6204C31.5 26.0766 28.6794 23.2037 25.2 23.2037C21.7206 23.2037 18.9 26.0766 18.9 29.6204V30.3334H21.7V29.6204C21.7 27.6516 23.267 26.0556 25.2 26.0556C27.133 26.0556 28.7 27.6516 28.7 29.6204Z" fill="#0050C2"/>
</svg>
