<svg width="31" height="30" viewBox="0 0 31 30" fill="none" xmlns="http://www.w3.org/2000/svg">
<path d="M15.5 15C18.9518 15 21.75 12.2018 21.75 8.75C21.75 5.29822 18.9518 2.5 15.5 2.5C12.0482 2.5 9.25 5.29822 9.25 8.75C9.25 12.2018 12.0482 15 15.5 15Z" stroke="#2897EC" stroke-width="2"/>
<path d="M21.75 17.5H22.19C23.1038 17.5003 23.9861 17.8342 24.6711 18.4391C25.3561 19.044 25.7966 19.8782 25.91 20.785L26.3987 24.69C26.4427 25.0418 26.4113 25.3989 26.3067 25.7376C26.2021 26.0764 26.0266 26.389 25.792 26.6547C25.5573 26.9205 25.2688 27.1333 24.9457 27.279C24.6225 27.4248 24.272 27.5001 23.9175 27.5H7.08245C6.72793 27.5001 6.37745 27.4248 6.05426 27.279C5.73108 27.1333 5.44258 26.9205 5.20792 26.6547C4.97327 26.389 4.79781 26.0764 4.69321 25.7376C4.58861 25.3989 4.55724 25.0418 4.6012 24.69L5.0887 20.785C5.20207 19.8778 5.64297 19.0432 6.32849 18.4383C7.01401 17.8333 7.89693 17.4996 8.8112 17.5H9.24995" stroke="#2897EC" stroke-width="2" stroke-linecap="round" stroke-linejoin="round"/>
</svg>
