<svg width="31" height="30" viewBox="0 0 31 30" fill="none" xmlns="http://www.w3.org/2000/svg">
<path d="M22.0625 28.125L20.0572 27.1753C19.2562 26.7935 18.5795 26.1931 18.1049 25.4434C17.6304 24.6937 17.3773 23.8251 17.375 22.9378V16.875H26.75V22.9388C26.7477 23.826 26.4946 24.6946 26.0201 25.4443C25.5455 26.1941 24.8688 26.7944 24.0678 27.1763L22.0625 28.125ZM19.25 18.75V22.9388C19.2517 23.4709 19.4036 23.9917 19.6884 24.4412C19.9732 24.8907 20.3793 25.2506 20.8597 25.4794L22.0625 26.0494L23.2653 25.4803C23.7459 25.2515 24.152 24.8914 24.4368 24.4417C24.7216 23.9921 24.8735 23.471 24.875 22.9388V18.75H19.25Z" fill="#2897EC"/>
<path d="M15.5 26.25H6.125V3.75001H13.625V9.37501C13.6265 9.87184 13.8245 10.3479 14.1758 10.6992C14.5271 11.0505 15.0032 11.2485 15.5 11.25H21.125V14.0625H23V9.37501C23.0033 9.2518 22.9799 9.12934 22.9313 9.01605C22.8828 8.90276 22.8103 8.80134 22.7188 8.71876L16.1563 2.15626C16.0737 2.06471 15.9723 1.99215 15.859 1.9436C15.7457 1.89504 15.6232 1.87164 15.5 1.87501H6.125C5.62818 1.8765 5.15212 2.07452 4.80081 2.42583C4.4495 2.77714 4.25148 3.25319 4.25 3.75001V26.25C4.25148 26.7468 4.4495 27.2229 4.80081 27.5742C5.15212 27.9255 5.62818 28.1235 6.125 28.125H15.5V26.25ZM15.5 4.12501L20.75 9.37501H15.5V4.12501Z" fill="#2897EC"/>
</svg>
