<svg width="30" height="30" viewBox="0 0 30 30" fill="none" xmlns="http://www.w3.org/2000/svg">
<path d="M30 22.5C30 23.3841 29.6488 24.2319 29.0237 24.857C28.3986 25.4822 27.5507 25.8334 26.6667 25.8334H3.33333C2.44928 25.8334 1.60143 25.4822 0.976311 24.857C0.35119 24.2319 0 23.3841 0 22.5V7.50002C0 6.61597 0.35119 5.76812 0.976311 5.143C1.60143 4.51788 2.44928 4.16669 3.33333 4.16669H26.6667C27.5507 4.16669 28.3986 4.51788 29.0237 5.143C29.6488 5.76812 30 6.61597 30 7.50002V22.5Z" fill="#29AE66"/>
<path d="M3.33337 4.16669H9.16671V25.8334H3.33337V4.16669Z" fill="#CA3745"/>
<path d="M3.33337 6.92669L4.00421 7.59752L3.82171 7.78002L4.08837 8.04669L4.26421 7.87085L4.81754 8.42419L4.27087 8.97169L4.04337 8.74335L3.80171 8.98419L4.00421 9.18585L3.33337 9.77835V9.46585L3.70087 9.11752L3.50254 8.95835L4.00921 8.45252L4.30171 8.70585L4.57504 8.43252L4.28254 8.14002L4.07754 8.34502L3.54337 7.81085L3.74337 7.61085L3.33337 7.24002V6.92669ZM3.33337 10.7817L4.00421 11.4517L3.82171 11.6342L4.08837 11.9009L4.26421 11.725L4.81754 12.2784L4.27087 12.8259L4.04337 12.5975L3.80171 12.8384L4.00421 13.04L3.33337 13.6325V13.32L3.70087 12.9717L3.50254 12.8125L4.00921 12.3067L4.30171 12.56L4.57504 12.2867L4.28254 11.9942L4.07754 12.1992L3.54337 11.665L3.74337 11.465L3.33337 11.0934V10.7817ZM3.33337 14.7134L4.00421 15.3842L3.82171 15.5667L4.08837 15.8334L4.26421 15.6575L4.81754 16.2109L4.27087 16.7575L4.04337 16.53L3.80171 16.7709L4.00421 16.9725L3.33337 17.565V17.2525L3.70087 16.9042L3.50254 16.745L4.00921 16.2384L4.30171 16.4925L4.57504 16.2192L4.28254 15.9259L4.07754 16.1309L3.54337 15.5975L3.74337 15.3975L3.33337 15.0259V14.7134ZM3.33337 18.5934L4.00421 19.2642L3.82171 19.4467L4.08837 19.7134L4.26421 19.5375L4.81754 20.0909L4.27087 20.6384L4.04337 20.41L3.80171 20.6509L4.00421 20.8525L3.33337 21.445V21.1325L3.70087 20.7842L3.50254 20.625L4.00921 20.1192L4.30171 20.3725L4.57504 20.0992L4.28254 19.8067L4.07754 20.0117L3.54337 19.4775L3.74337 19.2775L3.33337 18.9067V18.5934ZM9.16671 6.92669L8.49587 7.59752L8.67837 7.78002L8.41171 8.04669L8.23587 7.87085L7.68254 8.42419L8.22921 8.97169L8.45671 8.74335L8.69837 8.98419L8.49587 9.18585L9.16671 9.77835V9.46585L8.79921 9.11752L8.99754 8.95835L8.49087 8.45252L8.19837 8.70585L7.92504 8.43252L8.21754 8.14002L8.42254 8.34502L8.95671 7.81085L8.75671 7.61085L9.16671 7.24002V6.92669ZM3.80171 4.74002L4.04337 4.49835L4.27087 4.72669L4.81754 4.18002L4.80504 4.16669H4.55421L4.57504 4.18752L4.30171 4.46169L4.00921 4.20752L3.50254 4.71335L3.70087 4.87335L3.33337 5.22169V5.53419L4.00421 4.94169L3.80171 4.74002ZM8.99754 4.71335L8.49087 4.20752L8.19837 4.46169L7.92504 4.18752L7.94587 4.16669H7.69504L7.68254 4.18002L8.22921 4.72669L8.45671 4.49835L8.69837 4.74002L8.49587 4.94169L9.16671 5.53419V5.22169L8.79921 4.87335L8.99754 4.71335ZM9.16671 10.7817L8.49587 11.4517L8.67837 11.6342L8.41171 11.9009L8.23587 11.725L7.68254 12.2784L8.22921 12.8259L8.45671 12.5975L8.69837 12.8384L8.49587 13.04L9.16671 13.6325V13.32L8.79921 12.9717L8.99754 12.8125L8.49087 12.3067L8.19837 12.56L7.92504 12.2867L8.21754 11.9942L8.42254 12.1992L8.95671 11.665L8.75671 11.465L9.16671 11.0934V10.7817ZM9.16671 14.7134L8.49587 15.3842L8.67837 15.5667L8.41171 15.8334L8.23587 15.6575L7.68254 16.2109L8.22921 16.7575L8.45671 16.53L8.69837 16.7709L8.49587 16.9725L9.16671 17.565V17.2525L8.79921 16.9042L8.99754 16.745L8.49087 16.2384L8.19837 16.4925L7.92504 16.2192L8.21754 15.9259L8.42254 16.1309L8.95671 15.5975L8.75671 15.3975L9.16671 15.0259V14.7134ZM9.16671 18.5934L8.49587 19.2642L8.67837 19.4467L8.41171 19.7134L8.23587 19.5375L7.68254 20.0909L8.22921 20.6384L8.45671 20.41L8.69837 20.6509L8.49587 20.8525L9.16671 21.445V21.1325L8.79921 20.7842L8.99754 20.625L8.49087 20.1192L8.19837 20.3725L7.92504 20.0992L8.21754 19.8067L8.42254 20.0117L8.95671 19.4775L8.75671 19.2775L9.16671 18.9067V18.5934Z" fill="#FAAE29"/>
<path d="M8.35086 5.78164V5.45164L7.86503 5.15664H7.50003L6.91003 4.84998H5.59003L5.00003 5.15664H4.63503L4.1492 5.45164V5.78164L3.69836 6.05914V6.82331L4.1492 7.10081V7.43081L4.63503 7.72581H5.00003L5.59003 8.03248H6.91003L7.50003 7.72581H7.86503L8.35086 7.43081V7.10081L8.8017 6.82331V6.05914L8.35086 5.78164Z" fill="#29AE66"/>
<path d="M4.10669 6.44002V6.11419L4.49169 5.87669V5.59585L4.90669 5.34335H5.21836L5.72169 5.08252H6.28502V6.44002H4.10669Z" fill="#FAAE29"/>
<path d="M4.07251 6.44083V6.7675L4.45751 7.00417V7.28583L4.87251 7.5375H5.18334L5.68751 7.79833H6.25001V6.44083H4.07251ZM8.42751 6.44083V6.115L8.04251 5.87833V5.59667L7.62751 5.345H7.31668L6.81251 5.08417H6.25001V6.44083H8.42751Z" fill="white"/>
<path d="M8.42752 6.44086V6.76752L8.04252 7.00419V7.28586L7.62752 7.53752H7.31669L6.81252 7.79836H6.25002V6.44086H8.42752ZM4.10669 9.63502H4.67002V10.2425H4.10669V9.63502ZM4.67002 9.54836H5.23336V10.1559H4.67002V9.54836ZM5.23419 9.33169H5.79752V9.93919H5.23419V9.33169ZM7.84669 9.63502H8.41002V10.2425H7.84669V9.63502ZM7.28252 9.54836H7.84586V10.1559H7.28252V9.54836ZM6.71836 9.33169H7.28169V9.93919H6.71836V9.33169Z" fill="#FAAE29"/>
<path d="M5.79836 9.02753H6.71919V9.77836H5.79836V9.02753ZM4.10669 10.4034H4.67002V11.0109H4.10669V10.4034ZM4.67002 10.49H5.23336V11.0975H4.67002V10.49ZM5.23419 10.7075H5.79752V11.315H5.23419V10.7075ZM7.84669 10.4034H8.41002V11.0109H7.84669V10.4034ZM7.28252 10.49H7.84586V11.0975H7.28252V10.49ZM6.71836 10.7075H7.28169V11.315H6.71836V10.7075Z" fill="#FAAE29"/>
<path d="M5.79834 10.8683H6.71917V11.6192H5.79834V10.8683Z" fill="#FAAE29"/>
<path d="M7.12413 20.5067H5.40913L4.1958 21.2833V22.38L5.40913 23.1558H7.12413L8.33747 22.38V21.2833L7.12413 20.5067Z" fill="white"/>
<path d="M6.98579 13.0383H5.54745L4.52995 13.755V14.7692L5.54745 15.4858H6.98662L8.00412 14.7692V13.755L6.98579 13.0383ZM7.59912 14.6517L6.81829 15.2017H5.71495L4.93412 14.6517V13.8733L5.71495 13.3233H6.81829L7.59912 13.8733V14.6517ZM7.16079 20.4517H5.37245L4.10829 21.2608V22.4033L5.37245 23.2117H7.15995L8.42412 22.4033V21.2608L7.16079 20.4517ZM8.04329 22.3025L7.00162 22.9683H5.53079L4.48912 22.3025V21.3608L5.53079 20.695H7.00245L8.04412 21.3608V22.3025H8.04329ZM8.12829 17.865V17.4958H7.75995V17.085H4.76579V17.4958H4.35412V17.865H3.99329V18.4033H4.35412V18.8025H4.76579V19.2367H7.76079V18.8025H8.12829V18.4033H8.55912V17.865H8.12829ZM7.56412 19.01H4.96579V17.2733H7.56412V19.01Z" fill="#29AE66"/>
<path d="M6.25004 16.875L4.67004 17.8125V18.42L6.25004 19.445L7.84671 18.455V17.8125L6.25004 16.875Z" fill="#29AE66"/>
<path d="M5.54248 21.4717L6.24998 21.0625L6.95665 21.4717V22.2875L6.24998 22.695L5.54248 22.2875V21.4717Z" fill="#CA3745"/>
<path d="M6.95661 25.07L6.75328 25.2083C6.75328 25.2083 6.57995 24.8783 6.11078 24.8433C5.64161 24.8083 5.38161 25 4.98245 25.0258C4.58328 25.0517 3.35328 24.1208 3.99245 22.695C4.56578 23.1075 4.26828 23.6108 4.52995 23.8542C4.79161 24.0975 5.06745 24.2625 5.17328 24.5492C5.27995 24.8358 5.77828 24.5983 6.11078 24.6533C6.63161 24.74 6.95661 25.07 6.95661 25.07Z" fill="#FAAE29"/>
<path d="M5.54248 25.07L5.74581 25.2083C5.74581 25.2083 5.91915 24.8783 6.38831 24.8433C6.85748 24.8083 7.11831 25 7.51748 25.0258C7.91665 25.0517 9.14665 24.1208 8.50665 22.695C7.93415 23.1075 8.23081 23.6108 7.96915 23.8542C7.70748 24.0975 7.43165 24.2625 7.32581 24.5492C7.21915 24.8358 6.72081 24.5983 6.38831 24.6533C5.86748 24.74 5.54248 25.07 5.54248 25.07Z" fill="#FAAE29"/>
<path d="M15.15 6.90752C15.4289 7.14606 15.6529 7.442 15.8068 7.7751C15.9607 8.10819 16.0408 8.4706 16.0417 8.83752C16.0417 10.2542 14.8934 11.4025 13.4767 11.4025C13.0083 11.4007 12.5494 11.2695 12.1509 11.0234C12.3929 11.29 12.688 11.5032 13.0172 11.6493C13.3464 11.7954 13.7024 11.8711 14.0625 11.8717C14.7532 11.8717 15.4156 11.5973 15.904 11.1089C16.3923 10.6206 16.6667 9.95819 16.6667 9.26752C16.6667 8.21752 16.0434 7.32002 15.15 6.90752ZM13.205 6.55586L13 6.95836L13.3192 7.27836L12.8734 7.20752L12.6675 7.61002L12.5975 7.16419L12.1509 7.09336L12.5534 6.88836L12.4825 6.44086L12.8025 6.76086L13.205 6.55586Z" fill="white"/>
<path d="M14.4808 7.32917L14.2758 7.73167L14.5958 8.05167L14.1492 7.98084L13.9433 8.38334L13.8733 7.93667L13.4267 7.86584L13.8292 7.66084L13.7592 7.21417L14.0783 7.53417L14.4808 7.32917ZM13.205 7.88334L13 8.28584L13.3192 8.60584L12.8733 8.53501L12.6675 8.93751L12.5975 8.49084L12.1508 8.42001L12.5533 8.21501L12.4825 7.76834L12.8025 8.08834L13.205 7.88334ZM11.8767 8.55751L11.6717 8.96001L11.9917 9.28001L11.545 9.20917L11.3392 9.61251L11.2692 9.16584L10.8225 9.09501L11.225 8.89001L11.155 8.44334L11.4742 8.76334L11.8767 8.55751ZM13.205 9.30917L13 9.71167L13.3192 10.0317L12.8733 9.96084L12.6675 10.3633L12.5975 9.91667L12.1508 9.84584L12.5533 9.64084L12.4825 9.19417L12.8025 9.51417L13.205 9.30917Z" fill="white"/>
<path d="M5.88501 17.3091H6.64751V17.8216H5.88501V17.3091ZM5.88501 18.4766H6.64751V18.9891H5.88501V18.4766Z" fill="#CA3745"/>
<path d="M4.67004 17.9033H5.71421V18.4158H4.67004V17.9033ZM6.82338 17.9033H7.84671V18.4158H6.82338V17.9033Z" fill="#FAAE29"/>
</svg>
