<svg width="18" height="20" viewBox="0 0 18 20" fill="none" xmlns="http://www.w3.org/2000/svg">
<path d="M9.00004 10C11.3012 10 13.1667 8.13454 13.1667 5.83335C13.1667 3.53217 11.3012 1.66669 9.00004 1.66669C6.69885 1.66669 4.83337 3.53217 4.83337 5.83335C4.83337 8.13454 6.69885 10 9.00004 10Z" stroke="white" stroke-width="2"/>
<path d="M13.1667 11.6667H13.46C14.0692 11.6669 14.6574 11.8895 15.1141 12.2928C15.5708 12.696 15.8645 13.2522 15.94 13.8567L16.2658 16.46C16.2952 16.6945 16.2742 16.9326 16.2045 17.1584C16.1348 17.3843 16.0178 17.5927 15.8614 17.7699C15.7049 17.947 15.5126 18.0889 15.2971 18.186C15.0817 18.2832 14.848 18.3334 14.6117 18.3334H3.38834C3.152 18.3334 2.91834 18.2832 2.70288 18.186C2.48742 18.0889 2.29509 17.947 2.13866 17.7699C1.98222 17.5927 1.86525 17.3843 1.79551 17.1584C1.72578 16.9326 1.70487 16.6945 1.73418 16.46L2.05918 13.8567C2.13476 13.2519 2.42869 12.6955 2.8857 12.2922C3.34272 11.8889 3.93132 11.6665 4.54084 11.6667H4.83334" stroke="white" stroke-width="2" stroke-linecap="round" stroke-linejoin="round"/>
</svg>
